<svg xmlns:inkscape="http://www.inkscape.org/namespaces/inkscape" xmlns:sodipodi="http://sodipodi.sourceforge.net/DTD/sodipodi-0.dtd" xmlns="http://www.w3.org/2000/svg" xmlns:svg="http://www.w3.org/2000/svg" version="1.2" viewBox="0 0 1000 1000" width="1000" height="1000" id="svg58" sodipodi:docname="app-logo.svg">
  <sodipodi:namedview id="namedview58" pagecolor="#ffffff" bordercolor="#000000" borderopacity="0.25" inkscape:showpageshadow="2" inkscape:pageopacity="0.0" inkscape:pagecheckerboard="0" inkscape:deskcolor="#d1d1d1"/>
  <title id="title1">7028619-ai</title>
  <defs id="defs47">
    <linearGradient id="g1" x2="1" gradientUnits="userSpaceOnUse" gradientTransform="matrix(747.575,1035.574,-1035.574,747.575,759.556,-333.074)">
      <stop offset=".095" stop-color="#21004a" id="stop1"/>
      <stop offset=".556" stop-color="#160030" id="stop2"/>
    </linearGradient>
    <linearGradient id="g2" x2="1" gradientUnits="userSpaceOnUse" gradientTransform="matrix(359.813,-571.657,195.298,122.925,97.344,548.369)">
      <stop offset=".082" stop-color="#7acaff" id="stop3"/>
      <stop offset=".446" stop-color="#4486ef" id="stop4"/>
      <stop offset=".807" stop-color="#5204ae" id="stop5"/>
    </linearGradient>
    <linearGradient id="g3" x2="1" gradientUnits="userSpaceOnUse" gradientTransform="matrix(235.719,-374.501,56.265,35.415,98.787,481.773)">
      <stop offset=".082" stop-color="#7acaff" id="stop6"/>
      <stop offset=".446" stop-color="#4486ef" id="stop7"/>
      <stop offset=".807" stop-color="#5204ae" id="stop8"/>
    </linearGradient>
    <linearGradient id="g4" x2="1" gradientUnits="userSpaceOnUse" gradientTransform="matrix(107.683,0,0,98.905,559.032,286.374)">
      <stop offset=".082" stop-color="#7acaff" id="stop9"/>
      <stop offset=".446" stop-color="#4486ef" id="stop10"/>
      <stop offset=".807" stop-color="#5204ae" id="stop11"/>
    </linearGradient>
    <linearGradient id="g5" x2="1" gradientUnits="userSpaceOnUse" gradientTransform="matrix(83.764,0,0,97.377,360.515,606.753)">
      <stop offset=".082" stop-color="#7acaff" id="stop12"/>
      <stop offset=".446" stop-color="#4486ef" id="stop13"/>
      <stop offset=".807" stop-color="#5204ae" id="stop14"/>
    </linearGradient>
    <linearGradient id="g6" x2="1" gradientUnits="userSpaceOnUse" gradientTransform="matrix(142.98,0,0,82.167,467.707,451.976)">
      <stop offset=".082" stop-color="#7acaff" id="stop15"/>
      <stop offset=".446" stop-color="#4486ef" id="stop16"/>
      <stop offset=".807" stop-color="#5204ae" id="stop17"/>
    </linearGradient>
    <linearGradient id="g7" x2="1" gradientUnits="userSpaceOnUse" gradientTransform="matrix(117.431,149.85,-70.253,55.054,640.103,233.561)">
      <stop offset="0" stop-color="#d455fd" id="stop18"/>
      <stop offset=".03" stop-color="#d455fd" id="stop19"/>
      <stop offset=".236" stop-color="#d455fd" id="stop20"/>
      <stop offset=".446" stop-color="#b944ef" id="stop21"/>
      <stop offset=".807" stop-color="#5204ae" id="stop22"/>
    </linearGradient>
    <linearGradient id="g8" x2="1" gradientUnits="userSpaceOnUse" gradientTransform="matrix(112.048,0,0,94.18,580.548,286.372)">
      <stop offset="0" stop-color="#d455fd" id="stop23"/>
      <stop offset=".03" stop-color="#d455fd" id="stop24"/>
      <stop offset=".236" stop-color="#d455fd" id="stop25"/>
      <stop offset=".446" stop-color="#b944ef" id="stop26"/>
      <stop offset=".807" stop-color="#5204ae" id="stop27"/>
    </linearGradient>
    <linearGradient id="g9" x2="1" gradientUnits="userSpaceOnUse" gradientTransform="matrix(112.048,0,0,99.026,580.548,286.372)">
      <stop offset="0" stop-color="#d455fd" id="stop28"/>
      <stop offset=".03" stop-color="#d455fd" id="stop29"/>
      <stop offset=".236" stop-color="#d455fd" id="stop30"/>
      <stop offset=".446" stop-color="#b944ef" id="stop31"/>
      <stop offset=".807" stop-color="#5204ae" id="stop32"/>
    </linearGradient>
    <linearGradient id="g10" x2="1" gradientUnits="userSpaceOnUse" gradientTransform="matrix(150.746,38.298,-35.099,138.155,322.92,599.658)">
      <stop offset="0" stop-color="#d455fd" id="stop33"/>
      <stop offset=".03" stop-color="#d455fd" id="stop34"/>
      <stop offset=".236" stop-color="#d455fd" id="stop35"/>
      <stop offset=".446" stop-color="#b944ef" id="stop36"/>
      <stop offset=".807" stop-color="#5204ae" id="stop37"/>
    </linearGradient>
    <linearGradient id="g11" x2="1" gradientUnits="userSpaceOnUse" gradientTransform="matrix(121.95,0,0,82.623,307.407,631.721)">
      <stop offset="0" stop-color="#d455fd" id="stop38"/>
      <stop offset=".03" stop-color="#d455fd" id="stop39"/>
      <stop offset=".236" stop-color="#d455fd" id="stop40"/>
      <stop offset=".446" stop-color="#b944ef" id="stop41"/>
      <stop offset=".807" stop-color="#5204ae" id="stop42"/>
    </linearGradient>
    <linearGradient id="g12" x2="1" gradientUnits="userSpaceOnUse" gradientTransform="matrix(111.476,0,0,75.451,307.404,638.893)">
      <stop offset="0" stop-color="#d455fd" id="stop43"/>
      <stop offset=".03" stop-color="#d455fd" id="stop44"/>
      <stop offset=".236" stop-color="#d455fd" id="stop45"/>
      <stop offset=".446" stop-color="#b944ef" id="stop46"/>
      <stop offset=".807" stop-color="#5204ae" id="stop47"/>
    </linearGradient>
  </defs>
  <style id="style47">
		.s0 { fill: url(#g1) } 
		.s1 { fill: url(#g2) } 
		.s2 { opacity: .5;mix-blend-mode: screen;fill: url(#g3) } 
		.s3 { opacity: .5;mix-blend-mode: multiply;fill: url(#g4) } 
		.s4 { opacity: .5;mix-blend-mode: multiply;fill: url(#g5) } 
		.s5 { opacity: .5;mix-blend-mode: multiply;fill: url(#g6) } 
		.s6 { fill: url(#g7) } 
		.s7 { opacity: .5;mix-blend-mode: screen;fill: url(#g8) } 
		.s8 { opacity: .5;mix-blend-mode: screen;fill: url(#g9) } 
		.s9 { fill: url(#g10) } 
		.s10 { opacity: .5;mix-blend-mode: screen;fill: url(#g11) } 
		.s11 { opacity: .5;mix-blend-mode: screen;fill: url(#g12) } 
	</style>
  <g id="BACKGROUND">
    <path id="&lt;Path&gt;" class="s0" d="M 1000,1000 H 0 V 0 h 1000 z" style="fill:url(#g1)"/>
  </g>
  <g id="OBJECTS" transform="matrix(1.5588018,0,0,1.5588018,-281.95134,-270.19396)">
    <g id="g58">
      <g id="&lt;Group&gt;">
        <path id="path47" class="s1" d="m 692.2,363.9 c -1.4,14 -14,24.1 -28.1,22.7 q -2.9,-0.4 -5.7,-1.3 0.1,0 0,0 c -10.9,-3.8 -18.3,-14.8 -17,-26.9 0.1,-1.1 0.1,-2.4 -0.2,-3.6 q -0.3,-1 -0.7,-2 c -3.8,-9.5 -12.2,-13.2 -19,-14.5 -3.7,-0.8 -7,-0.8 -8.9,-0.8 -4.3,0.2 -8.8,1 -13.2,2.5 -11,3.5 -22.4,10.8 -35.1,22.1 -22,19.6 -41,44.8 -58,76.9 q -5,7.7 -9.5,15.7 0,0 0.1,0 c 2.8,-1.1 5.6,-2 8,-2.7 4.2,-1.3 7.1,-2 7.1,-2 22.8,-7.8 46.5,-13 70.7,-15.3 12.9,-1.2 24.5,7.4 27.3,19.8 q 0.4,1.5 0.6,3.2 c 1.3,14 -9,26.5 -23,27.9 -31.2,3 -61.6,11.7 -89.6,25.3 -12.5,6.4 -22,14.4 -28.4,20.7 q -1.1,1.2 -1.9,2.5 -0.6,1.1 -1,2.4 c -4,12.2 -7.9,24.4 -11.7,36.4 q -2,6.4 -4,12.8 c -2.3,7 -4.5,14 -6.7,21.1 q -2.3,7 -4.6,14.1 c -6.9,20.8 -14.3,41.5 -23.5,61.2 -1.8,4.1 -3.9,8 -6.4,11.6 -2.7,4 -5.9,7.7 -9.6,10.7 -7.1,5.6 -16,8.8 -25,9.7 -9.1,0.9 -18.2,-0.4 -26.9,-3 -21.6,-6.4 -38.2,-23.8 -40.6,-46.8 -1,-9 0.6,-18.8 6.4,-25.9 4.2,-5.2 11,-8.5 17.7,-8.2 7.3,0.3 12.6,5.6 17.1,10.8 3.6,4.1 7.6,8.9 12.5,11.4 3.4,1.7 7.3,2.3 11.6,0.6 q 0,0 0,-0.1 2.1,-4.8 4,-9.7 c 10.9,-27.6 19.9,-55.9 29.2,-85.7 5.1,-16.1 21.9,-66.2 22.9,-69.2 27.1,-74.7 59.3,-126.9 101.2,-164.4 7.2,-6.4 14.4,-12 21.5,-16.8 q 3.7,-2.5 7.2,-4.6 c 9.3,-5.5 17.4,-8.7 21.5,-10.1 2,-0.7 3,-1 3,-1 16.5,-5.4 33.6,-6.4 49.2,-3.2 7.6,1.5 14.9,4.1 21.6,7.6 25.6,13.6 40.8,40.9 37.9,68.1 z" style="fill:url(#g2)"/>
        <path id="path48" class="s2" d="m 619.1,286.5 c -8.8,0.4 -17.7,2 -26.5,4.9 0,0 -1.1,0.3 -3,1 -4.2,1.4 -12.2,4.6 -21.5,10.1 q -3.5,2.1 -7.2,4.6 c -7.1,4.8 -14.3,10.4 -21.6,16.8 -41.9,37.5 -74,89.7 -101.1,164.4 -1.1,3 -17.8,53.1 -22.9,69.2 -9.4,29.8 -18.4,58.1 -29.3,85.7 q -1.9,4.9 -3.9,9.7 0,0.1 0,0.1 c -3.6,1.3 -6.8,1.2 -9.7,0.2 L 373,653 q 0,0 0,-0.1 2.1,-4.8 4,-9.7 c 10.9,-27.6 19.9,-55.9 29.2,-85.7 5.1,-16.1 21.9,-66.2 22.9,-69.2 27.1,-74.7 59.3,-126.9 101.2,-164.4 7.2,-6.4 14.4,-12 21.5,-16.8 q 3.7,-2.5 7.2,-4.6 c 9.3,-5.5 17.4,-8.7 21.5,-10.1 2,-0.7 3,-1 3,-1 11.9,-3.9 23.9,-5.5 35.6,-4.9 z" style="fill:url(#g3)"/>
        <path id="path49" class="s3" d="m 666.5,371.7 c -0.1,2.9 -0.4,5.9 -1.7,8.6 -1.2,2.5 -3.6,4.7 -6.4,5 q 0.1,0 0,0 c -10.9,-3.8 -18.3,-14.8 -17,-26.9 0.1,-1.1 0.1,-2.4 -0.2,-3.6 q -0.3,-1 -0.7,-2 c -3.8,-9.5 -12.2,-13.2 -19,-14.5 -7.1,-9.5 -16,-17.5 -26.1,-23.6 -11,-6.6 -23.6,-10.7 -36.4,-12.2 9.3,-5.5 17.4,-8.7 21.5,-10.1 2,-0.7 3,-1 3,-1 16.5,-5.4 33.6,-6.4 49.2,-3.2 q 3.9,3.1 7.4,6.6 c 19.4,20 28,49.1 26.4,76.9 z" style="fill:url(#g4)"/>
        <path id="path50" class="s4" d="m 444.3,606.8 q -2.3,7 -4.6,14.1 c -6.9,20.8 -14.3,41.5 -23.5,61.2 -1.8,4.1 -3.9,8 -6.4,11.6 -3.9,3.3 -8.2,6 -12.9,7.9 -6.6,2.7 -14.3,3.7 -20.8,0.7 -9.1,-4.3 -13.4,-15 -14.8,-25 -1.1,-7.7 -1.1,-16.6 0.1,-24.9 3.4,1.7 7.3,2.3 11.6,0.6 q 0,0 0,-0.1 2.1,-4.8 4,-9.7 c 2.2,-0.4 4.4,-0.9 6.6,-1.5 22.6,-6.6 43.6,-18.8 60.7,-34.9 z" style="fill:url(#g5)"/>
        <path id="path51" class="s5" d="m 587.6,485.6 c -31.2,3 -61.6,11.7 -89.6,25.3 -12.5,6.4 -22,14.4 -28.4,20.7 q -1.1,1.2 -1.9,2.5 c -0.4,-6.4 21.4,-67.9 29.2,-79.4 2.8,-1.1 5.6,-2 8,-2.7 4.1,12.5 16.1,22.9 27.9,28.8 4,2 8.3,3.5 12.7,4.2 6.5,0.9 13.1,0.1 19.5,-1.3 10.8,-2.3 21.4,-6.1 30.4,-12.5 6,-4.4 11.2,-10.2 14.6,-16.7 q 0.4,1.5 0.6,3.2 c 1.3,14 -9,26.5 -23,27.9 z" style="fill:url(#g6)"/>
      </g>
      <g id="g54">
        <path id="path52" class="s6" d="m 692.2,363.9 c -0.7,6.7 -4,12.5 -8.7,16.7 -2.5,2.1 -5.5,3.8 -8.6,4.8 -3.4,1.1 -7,1.6 -10.8,1.2 -14,-1.5 -24.2,-14.1 -22.7,-28.2 0.1,-1.1 0.1,-2.4 -0.2,-3.6 -0.2,-0.7 -0.6,-27.3 -19.4,-46.4 -5.9,-6.1 -13.5,-10.5 -21.6,-13.1 -4.2,-1.4 -8.6,-2.2 -13.1,-2.7 q -3.3,-0.3 -6.6,-0.2 c 2,-0.7 3,-1 3,-1 24.6,-8 50.3,-6.4 70.8,4.4 25.6,13.6 40.8,40.9 37.9,68.1 z" style="fill:url(#g7)"/>
        <path id="path53" class="s7" d="m 692.2,363.9 c -0.7,6.7 -4,12.5 -8.7,16.7 0.4,-3.4 1.1,-6.8 1.6,-10.2 1.9,-13.6 -0.9,-27.6 -6.4,-40.3 -1.7,-4 -3.8,-8 -6.5,-11.5 -2.5,-3.3 -5.5,-6.1 -8.8,-8.7 -21,-16.9 -50,-23.3 -76.3,-17.3 q -3.3,-0.3 -6.6,-0.2 c 2,-0.7 3,-1 3,-1 24.6,-8 50.3,-6.4 70.8,4.4 25.6,13.6 40.8,40.9 37.9,68.1 z" style="fill:url(#g8)"/>
        <path id="path54" class="s8" d="m 692.2,363.9 c -0.7,6.7 -4,12.5 -8.7,16.7 -2.5,2.1 -5.5,3.8 -8.6,4.8 0.1,-12.9 -1.2,-25.9 -5.2,-38.2 -4.7,-14.8 -13.4,-28.5 -26,-37.6 -7.6,-5.5 -16.4,-9.1 -25.5,-11.6 -5.1,-1.4 -10.3,-2.5 -15.6,-2.7 q -1.2,0 -2.4,0 c -4.2,-1.4 -8.6,-2.2 -13.1,-2.7 q -3.3,-0.3 -6.6,-0.2 c 2,-0.7 3,-1 3,-1 24.6,-8 50.3,-6.4 70.8,4.4 25.6,13.6 40.8,40.9 37.9,68.1 z" style="fill:url(#g9)"/>
      </g>
      <g id="g57">
        <path id="path55" class="s9" d="m 439.7,620.9 c -3.3,9.9 -6.7,19.8 -10.3,29.6 -3.3,8.7 -6.8,17.3 -10.5,25.8 q -1.3,2.9 -2.7,5.8 c -3.8,8.4 -8.8,16.5 -16,22.3 -7.1,5.6 -16,8.8 -25,9.7 -9.1,0.9 -18.2,-0.4 -26.9,-3 -21.6,-6.4 -38.2,-23.8 -40.6,-46.8 -1,-8.8 0.5,-18.4 6,-25.4 q 0.2,-0.3 0.4,-0.5 c 2.4,-2.9 5.5,-5.3 9.1,-6.7 2.7,-1.1 5.7,-1.7 8.6,-1.5 7.3,0.3 12.6,5.6 17.1,10.8 6.1,7 13.6,16 24.1,12 q 0,0 0,-0.1 3,1.3 6.1,1.9 c 3.6,0.6 7.3,0.4 11,0 4.9,-0.5 9.9,-1.3 14.5,-3 11.4,-4.3 20.1,-13.4 28.1,-22.5 2.4,-2.7 4.8,-5.5 7,-8.4 z" style="fill:url(#g10)"/>
        <path id="path56" class="s10" d="m 429.4,650.5 c -4.1,10.7 -8.4,21.3 -13.2,31.6 -3.8,8.4 -8.8,16.5 -16,22.3 -7.1,5.6 -16,8.8 -25,9.7 -9.1,0.9 -18.2,-0.4 -26.9,-3 -21.6,-6.4 -38.2,-23.8 -40.6,-46.8 -1,-9 0.6,-18.8 6.4,-25.9 2.4,-2.9 5.5,-5.3 9.1,-6.7 q 0.2,1.1 0.5,2.2 c 3.4,13.3 9.3,26.2 18.8,36.1 9.5,9.9 23,16.4 36.7,15.6 7.2,-0.4 14.3,-2.8 20.7,-6.2 12.3,-6.6 22.2,-16.9 29.5,-28.9 z" style="fill:url(#g11)"/>
        <path id="path57" class="s11" d="m 418.9,676.3 q -1.3,2.9 -2.7,5.8 c -3.8,8.4 -8.8,16.5 -16,22.3 -7.1,5.6 -16,8.8 -25,9.7 -9.1,0.9 -18.2,-0.4 -26.9,-3 -21.6,-6.4 -38.2,-23.8 -40.6,-46.8 -1,-8.8 0.5,-18.4 6,-25.4 1,19.9 11.5,39.4 28.1,50.7 4,2.7 8.4,5 13,6.6 15.8,5.3 33.6,1.8 47.8,-6.8 6,-3.6 11.4,-8.1 16.3,-13.1 z" style="fill:url(#g12)"/>
      </g>
    </g>
  </g>
</svg>